<?xml version="1.0" encoding="UTF-8" standalone="no"?>
<!DOCTYPE svg PUBLIC "-//W3C//DTD SVG 1.1//EN"
 "http://www.w3.org/Graphics/SVG/1.1/DTD/svg11.dtd">
<!-- Generated by graphviz version 2.40.1 (20161225.0304)
 -->
<!-- Title: gocallvis Pages: 1 -->
<svg width="221pt" height="166pt"
 viewBox="0.00 0.00 221.00 165.80" xmlns="http://www.w3.org/2000/svg" xmlns:xlink="http://www.w3.org/1999/xlink">
<g id="graph0" class="graph" transform="scale(1 1) rotate(0) translate(0 165.8)">
<title>gocallvis</title>
<polygon fill="#d3d3d3" stroke="transparent" points="0,0 0,-165.8 221,-165.8 221,0 0,0"/>
<text text-anchor="middle" x="92.7959" y="-8.2" font-family="Arial" font-size="14.00" fill="#000000">github.com/yleoer/go&#45;demo</text>
<g id="clust1" class="cluster">
<title>cluster_focus</title>
<polygon fill="#e6ecfa" stroke="#000000" stroke-width=".5" points="8,-32.8 8,-157.8 213,-157.8 213,-32.8 8,-32.8"/>
<text text-anchor="middle" x="110.5" y="-137.6" font-family="Arial" font-size="18.00" fill="#000000">main</text>
</g>
<g id="clust2" class="cluster">
<title>cluster_github.com/yleoer/go&#45;demo/hello</title>
<g id="a_clust2"><a xlink:href="/?f=github.com/yleoer/go-demo/hello" xlink:title="package: github.com/yleoer/go&#45;demo/hello">
<polygon fill="#ffffe0" stroke="#000000" stroke-width=".8" points="135,-40.8 135,-119.8 205,-119.8 205,-40.8 135,-40.8"/>
<text text-anchor="middle" x="170" y="-101.4" font-family="Tahoma bold" font-size="16.00" fill="#000000">hello</text>
</a>
</g>
</g>
<!-- github.com/yleoer/go&#45;demo.main -->
<g id="node1" class="node">
<title>github.com/yleoer/go&#45;demo.main</title>
<ellipse fill="#add8e6" stroke="#000000" stroke-width=".5" cx="43" cy="-66.8" rx="27" ry="18"/>
<text text-anchor="middle" x="43" y="-62.6" font-family="Verdana" font-size="14.00" fill="#000000">main</text>
</g>
<!-- github.com/yleoer/go&#45;demo/hello.Greet -->
<g id="node2" class="node">
<title>github.com/yleoer/go&#45;demo/hello.Greet</title>
<ellipse fill="#ffe4b5" stroke="#000000" stroke-width="1.5" cx="170" cy="-66.8" rx="27" ry="18"/>
<text text-anchor="middle" x="170" y="-62.6" font-family="Verdana" font-size="14.00" fill="#000000">Greet</text>
</g>
<!-- github.com/yleoer/go&#45;demo.main&#45;&gt;github.com/yleoer/go&#45;demo/hello.Greet -->
<g id="edge1" class="edge">
<title>github.com/yleoer/go&#45;demo.main&#45;&gt;github.com/yleoer/go&#45;demo/hello.Greet</title>
<path fill="none" stroke="#8b4513" d="M70.2447,-66.8C88.492,-66.8 112.746,-66.8 132.7693,-66.8"/>
<polygon fill="#8b4513" stroke="#8b4513" points="132.8004,-70.3001 142.8004,-66.8 132.8003,-63.3001 132.8004,-70.3001"/>
</g>
</g>
</svg>
